<svg id="Layer_1" data-name="Layer 1" xmlns="http://www.w3.org/2000/svg" xmlns:xlink="http://www.w3.org/1999/xlink" viewBox="0 0 311.39 311.39"><defs><style>.cls-1{fill:none;}.cls-2{clip-path:url(#clip-path);}.cls-3{clip-path:url(#clip-path-2);}.cls-4{clip-path:url(#clip-path-3);}</style><clipPath id="clip-path"><rect class="cls-1" x="112.37" y="130.7" width="86.76" height="58.42"/></clipPath><clipPath id="clip-path-2"><path class="cls-1" d="M211.88,161.51c-1.17-1.29-3.13-1.11-5.77-.19V130.89H179.77v39.59a38.58,38.58,0,0,1-10.45-.08c-8.91-1.33-14.08-5.46-16.73-2.79-3,3.06-.05,12.33,5.27,18,6.29,6.68,15,7.33,23.14,7.95s21.23,1.61,26.54-5.89c1.42-2,2.08-6,3.41-13.94C212.19,166.26,212.81,162.55,211.88,161.51Z"/></clipPath><clipPath id="clip-path-3"><polygon class="cls-1" points="179.99 140.65 179.99 133.16 199.22 131.64 201.43 142.03 198.98 154.14 197.59 176.81 188.91 179.26 179.1 186.55 160.11 186.79 154.63 178.77 154.14 169.28 162.08 163.8 173.04 168.38 177.38 167.24 177.13 145.47 179.99 140.65"/></clipPath></defs><title>2_BnW Icon_Vijay Johar_Logo-04</title><path d="M223,153.53c0,.85.06,1.69.06,2.54A67.4,67.4,0,1,1,90.87,137.7H86.46a71.63,71.63,0,1,0,140.87,18.37c0-.85,0-1.69-.06-2.54Z"/><path d="M224.13,137.6A70.8,70.8,0,0,0,93.49,121.25h3.86A67.45,67.45,0,0,1,220.68,137.6Z"/><path d="M224.84,138.15h-4.58l-.11-.41A66.89,66.89,0,0,0,97.83,121.53l-.16.27H92.56L93,121a71.37,71.37,0,0,1,131.65,16.47Zm-3.74-1.1h2.32a70.25,70.25,0,0,0-129-16.34H97A68,68,0,0,1,221.1,137.05Z"/><g class="cls-2"><path d="M150.8,135.33a5.52,5.52,0,0,1,1.67-1.75,3.94,3.94,0,0,1,2.17-.59,4.31,4.31,0,0,1,2.8,1,3.32,3.32,0,0,1,1.21,2.68,3.91,3.91,0,0,1-.09.83,4.46,4.46,0,0,1-.25.84,177.64,177.64,0,0,0-10.69,22q-4.5,11.2-8.68,22.14a4.71,4.71,0,0,1-1.68,2.17,4,4,0,0,1-2.33.75,4.11,4.11,0,0,1-2.18-.62,5,5,0,0,1-1.67-1.88q-4.43-11.37-8.68-22.64t-8.52-22.72c0-.05,0-.07,0,0s0,0,0-.13v-.41a3.73,3.73,0,0,1,1.13-2.93,4,4,0,0,1,2.72-1,4.46,4.46,0,0,1,3.84,2.26q2.17,5.5,3.84,9.89c1.11,2.93,2.19,5.73,3.22,8.4s2,5.37,3.05,8.1,2.08,5.74,3.25,9l2-4.68v.09l1.33-3.26c.17-.44.37-.89.59-1.34a12.77,12.77,0,0,0,.58-1.33q2.67-6.52,5.39-12.74A124.81,124.81,0,0,1,150.8,135.33Z"/><g class="cls-3"><g class="cls-4"><path d="M193.94,133.05a4.59,4.59,0,0,1,3.21,1.21,3.16,3.16,0,0,1,1,2.46,3.27,3.27,0,0,1-.92,2.26,5.25,5.25,0,0,1-2.84,1.42c-1,0-2.05.08-3.13.08h-3.05q0,7.35,0,14.66t0,14.66a15.2,15.2,0,0,1-2.34,8.35,16,16,0,0,1-6.3,5.6,18.15,18.15,0,0,1-8.4,2.08,15.72,15.72,0,0,1-5.72-1,11.73,11.73,0,0,1-4.72-3.38h.08q-.24-.25-1-1.17c-.47-.61-1-1.28-1.46-2l-1.38-2a3.37,3.37,0,0,1-.62-1.17,3.63,3.63,0,0,1-.84-2.26,3.33,3.33,0,0,1,1.09-2.46,3.82,3.82,0,0,1,2.75-1,5.69,5.69,0,0,1,3.26,1.17,9.9,9.9,0,0,1,1.92,2.84,19.91,19.91,0,0,0,1.05,1.71,10,10,0,0,0,1.21,1.46,7,7,0,0,0,2.21,1.38,7.06,7.06,0,0,0,2.47.46,8.19,8.19,0,0,0,3.25-.67,8.61,8.61,0,0,0,2.76-1.84,7.25,7.25,0,0,0,1.38-1.63,5.12,5.12,0,0,0,.71-1.79c.28-2.17.46-4.32.54-6.43s.13-4.24.13-6.35c0-3,0-6.1-.13-9.44s-.18-6.52-.29-9.52q-3,.16-6.1.12c-2.06,0-4.06,0-6,0-1.12,0-2.2,0-3.26,0s-2.14,0-3.26,0a5.19,5.19,0,0,1-3.05-1.46,3.18,3.18,0,0,1-1-2.38q0-2.25,3.26-3.59c1.39,0,2.81,0,4.26,0s2.89,0,4.34,0c1.84,0,3.8,0,5.89,0s4.22,0,6.39,0,4.32,0,6.43,0S192,133.1,193.94,133.05Z"/></g></g></g><rect x="70.82" y="133.09" width="50.67" height="7.35" rx="3.35"/><path d="M117.81,140.58H74.49a3.81,3.81,0,0,1,0-7.62h43.32a3.81,3.81,0,1,1,0,7.62Zm-43.32-7.35a3.54,3.54,0,0,0,0,7.08h43.32a3.54,3.54,0,0,0,0-7.08Z"/><rect x="181.06" y="133.26" width="60.23" height="7.35" rx="3.35"/><path d="M237.62,140.74H184.74a3.81,3.81,0,1,1,0-7.62h52.88a3.81,3.81,0,0,1,0,7.62Zm-52.88-7.35a3.54,3.54,0,0,0,0,7.08h52.88a3.54,3.54,0,0,0,0-7.08Z"/><path d="M155.55,71.81a83.53,83.53,0,0,1,82,68.43h5.33a88.66,88.66,0,0,0-169-19.6h5.76A83.52,83.52,0,0,1,155.55,71.81Z"/><path d="M243.57,140.79h-6.44l-.08-.45A82.84,82.84,0,0,0,80.16,120.87l-.14.32h-7l.33-.76a89.22,89.22,0,0,1,170.06,19.72Zm-5.52-1.1h4.22a88.11,88.11,0,0,0-167.53-19.6h4.57a83.94,83.94,0,0,1,158.74,19.6Z"/><path d="M239,153c0,1,.08,2.09.08,3.14A83.42,83.42,0,1,1,75.46,133.42H70a88.66,88.66,0,1,0,174.36,22.74c0-1,0-2.09-.08-3.14Z"/><path d="M155.69,245.38a89.2,89.2,0,0,1-86.22-112.1l.11-.41h6.6l-.2.7a82.86,82.86,0,1,0,162.58,22.59c0-1,0-2-.07-3l0-.57.56-.08h5.78l0,.88c0,.93.07,1.87.07,2.81A89.32,89.32,0,0,1,155.69,245.38ZM70.42,134a88.12,88.12,0,1,0,173.39,22.19c0-.87,0-1.73-.06-2.59H239.6c0,.86.06,1.72.06,2.59A84,84,0,1,1,74.73,134Z"/></svg>