<svg id="Layer_1" data-name="Layer 1" xmlns="http://www.w3.org/2000/svg" xmlns:xlink="http://www.w3.org/1999/xlink" viewBox="0 0 737.11 311.39"><defs><style>.cls-1{fill:none;}.cls-2{fill:#f6b042;}.cls-3{clip-path:url(#clip-path);}.cls-4{fill:#203459;}.cls-5{clip-path:url(#clip-path-2);}.cls-6{clip-path:url(#clip-path-3);}</style><clipPath id="clip-path"><rect class="cls-1" x="102.99" y="130.7" width="86.76" height="58.42"/></clipPath><clipPath id="clip-path-2"><path class="cls-1" d="M202.5,161.51c-1.17-1.29-3.14-1.11-5.77-.19V130.89H170.39v39.59a38.58,38.58,0,0,1-10.45-.08c-8.91-1.33-14.09-5.46-16.73-2.79-3,3.06-.05,12.33,5.27,18,6.29,6.68,15,7.33,23.13,7.95s21.24,1.61,26.55-5.89c1.42-2,2.08-6,3.41-13.94C202.81,166.26,203.43,162.55,202.5,161.51Z"/></clipPath><clipPath id="clip-path-3"><polygon class="cls-1" points="170.61 140.65 170.61 133.16 189.84 131.64 192.05 142.03 189.6 154.14 188.21 176.81 179.53 179.26 169.72 186.55 150.73 186.79 145.25 178.77 144.76 169.28 152.69 163.8 163.66 168.38 168 167.24 167.75 145.47 170.61 140.65"/></clipPath></defs><title>1_Coloured Logo_Vijay Johar_Logo</title><path class="cls-2" d="M213.65,153.53c0,.85.06,1.69.06,2.54A67.4,67.4,0,1,1,81.49,137.7H77.08A71.63,71.63,0,1,0,218,156.07c0-.85,0-1.69-.06-2.54Z"/><path class="cls-2" d="M214.75,137.6A70.8,70.8,0,0,0,84.11,121.25H88A67.45,67.45,0,0,1,211.3,137.6Z"/><path class="cls-2" d="M215.46,138.15h-4.58l-.11-.41A66.9,66.9,0,0,0,88.44,121.53l-.15.27H83.18l.45-.81a71.37,71.37,0,0,1,131.65,16.47Zm-3.74-1.1H214A70.25,70.25,0,0,0,85,120.71h2.62a68,68,0,0,1,124.06,16.34Z"/><g class="cls-3"><path class="cls-4" d="M141.42,135.33a5.52,5.52,0,0,1,1.67-1.75,3.94,3.94,0,0,1,2.17-.59,4.33,4.33,0,0,1,2.8,1,3.32,3.32,0,0,1,1.21,2.68,3.91,3.91,0,0,1-.09.83,4.46,4.46,0,0,1-.25.84,177.64,177.64,0,0,0-10.69,22q-4.52,11.2-8.69,22.14a4.69,4.69,0,0,1-1.67,2.17,4,4,0,0,1-2.33.75,4.11,4.11,0,0,1-2.18-.62,5,5,0,0,1-1.67-1.88q-4.42-11.37-8.68-22.64T104.5,137.5c0-.05,0-.07,0,0s0,0,0-.13v-.41a3.73,3.73,0,0,1,1.13-2.93,4,4,0,0,1,2.72-1,4.48,4.48,0,0,1,3.84,2.26q2.18,5.5,3.84,9.89c1.11,2.93,2.19,5.73,3.22,8.4s2,5.37,3,8.1,2.09,5.74,3.26,9l2-4.68v.09l1.33-3.26a14,14,0,0,1,.59-1.34,12.77,12.77,0,0,0,.58-1.33q2.67-6.52,5.39-12.74A124.81,124.81,0,0,1,141.42,135.33Z"/><g class="cls-5"><g class="cls-6"><path class="cls-4" d="M184.56,133.05a4.59,4.59,0,0,1,3.21,1.21,3.16,3.16,0,0,1,1,2.46,3.27,3.27,0,0,1-.92,2.26,5.29,5.29,0,0,1-2.84,1.42c-1,0-2.05.08-3.13.08h-3.05q0,7.35,0,14.66t0,14.66a15.2,15.2,0,0,1-2.34,8.35,16,16,0,0,1-6.31,5.6,18.08,18.08,0,0,1-8.39,2.08,15.72,15.72,0,0,1-5.72-1,11.73,11.73,0,0,1-4.72-3.38h.08q-.24-.25-1-1.17c-.47-.61-1-1.28-1.46-2l-1.38-2a3.37,3.37,0,0,1-.62-1.17,3.63,3.63,0,0,1-.84-2.26,3.3,3.3,0,0,1,1.09-2.46,3.82,3.82,0,0,1,2.75-1,5.69,5.69,0,0,1,3.26,1.17,9.9,9.9,0,0,1,1.92,2.84,19.91,19.91,0,0,0,1.05,1.71,10,10,0,0,0,1.21,1.46,7,7,0,0,0,2.21,1.38,7,7,0,0,0,2.46.46,8.24,8.24,0,0,0,3.26-.67,8.61,8.61,0,0,0,2.76-1.84,7.81,7.81,0,0,0,1.38-1.63,5.32,5.32,0,0,0,.71-1.79c.27-2.17.46-4.32.54-6.43s.12-4.24.12-6.35q0-4.43-.12-9.44c-.08-3.34-.18-6.52-.29-9.52q-3,.16-6.1.12c-2.06,0-4.07,0-6,0-1.12,0-2.2,0-3.26,0s-2.15,0-3.26,0a5.17,5.17,0,0,1-3-1.46,3.18,3.18,0,0,1-1-2.38q0-2.25,3.26-3.59c1.39,0,2.81,0,4.26,0s2.89,0,4.34,0c1.84,0,3.8,0,5.89,0s4.22,0,6.39,0,4.32,0,6.43,0S182.66,133.1,184.56,133.05Z"/></g></g></g><rect class="cls-4" x="61.44" y="133.09" width="50.67" height="7.35" rx="3.35"/><path class="cls-4" d="M108.43,140.58H65.11a3.81,3.81,0,1,1,0-7.62h43.32a3.81,3.81,0,0,1,0,7.62Zm-43.32-7.35a3.54,3.54,0,0,0,0,7.08h43.32a3.54,3.54,0,0,0,0-7.08Z"/><rect class="cls-4" x="171.68" y="133.26" width="60.23" height="7.35" rx="3.35"/><path class="cls-4" d="M228.24,140.74H175.35a3.81,3.81,0,1,1,0-7.62h52.89a3.81,3.81,0,0,1,0,7.62Zm-52.89-7.35a3.54,3.54,0,0,0,0,7.08h52.89a3.54,3.54,0,0,0,0-7.08Z"/><path class="cls-4" d="M146.17,71.81a83.53,83.53,0,0,1,82,68.43h5.33a88.66,88.66,0,0,0-169-19.6h5.76A83.52,83.52,0,0,1,146.17,71.81Z"/><path class="cls-4" d="M234.19,140.79h-6.44l-.08-.45A82.84,82.84,0,0,0,70.78,120.87l-.14.32h-7l.33-.76a89.22,89.22,0,0,1,170.06,19.72Zm-5.52-1.1h4.22a88.11,88.11,0,0,0-167.53-19.6h4.57a83.94,83.94,0,0,1,158.74,19.6Z"/><path class="cls-4" d="M229.65,153c0,1,.08,2.09.08,3.14A83.42,83.42,0,1,1,66.07,133.42H60.62A88.66,88.66,0,1,0,235,156.16c0-1,0-2.09-.08-3.14Z"/><path class="cls-4" d="M146.31,245.38a89.2,89.2,0,0,1-86.22-112.1l.11-.41h6.6l-.2.7a82.86,82.86,0,1,0,162.58,22.59c0-1,0-2-.07-3l0-.57.56-.08h5.78l0,.88c0,.93.07,1.87.07,2.81A89.32,89.32,0,0,1,146.31,245.38ZM61,134a88.12,88.12,0,1,0,173.39,22.19c0-.87,0-1.73-.06-2.59h-4.15c0,.86.06,1.72.06,2.59A84,84,0,1,1,65.35,134Z"/><path class="cls-4" d="M305.47,90.13l-17.36,48.31h-9.5L261.26,90.13h9.5l12.6,35.06L296,90.13Z"/><path class="cls-4" d="M310.94,90.13h9.21v48.31h-9.21Z"/><path class="cls-4" d="M324.4,127.79l7.71-3.17c.64,2.81,2.73,5.9,5.9,5.9,3.53,0,5.4-2.66,5.4-6.05V90.13h9.22v33.62c0,8.93-4.68,15.27-13.83,15.27A15.16,15.16,0,0,1,324.4,127.79Z"/><path class="cls-4" d="M388.77,126.78H369.4l-4.46,11.66h-9.72L374.8,90.13h8.64L403,138.44h-9.79Zm-3.53-9.22-6.12-16.13-6.19,16.13Z"/><path class="cls-4" d="M420.6,114.68v23.76h-9.22V114.68L394.67,90.13h10.44L415.92,106l10.87-15.91H437.3Z"/><path class="cls-4" d="M458.39,127.79l7.71-3.17c.65,2.81,2.73,5.9,5.9,5.9,3.53,0,5.4-2.66,5.4-6.05V90.13h9.22v33.62c0,8.93-4.68,15.27-13.83,15.27A15.16,15.16,0,0,1,458.39,127.79Z"/><path class="cls-4" d="M493.38,114.32c0-13.68,8.93-24.77,23.84-24.77s23.9,11.09,23.9,24.77S532.2,139,517.22,139,493.38,127.93,493.38,114.32Zm37.81,0c0-9.43-5.47-16.13-14-16.13s-13.83,6.7-13.83,16.13,5.48,16.06,13.83,16.06S531.19,123.68,531.19,114.32Z"/><path class="cls-4" d="M583.68,90.13v48.31h-9.22V118.71H556.6v19.73h-9.22V90.13h9.22V109.5h17.86V90.13Z"/><path class="cls-4" d="M621,126.78H601.67l-4.46,11.66h-9.72l19.58-48.31h8.64l19.59,48.31h-9.79Zm-3.53-9.22-6.12-16.13-6.19,16.13Z"/><path class="cls-4" d="M640.19,90.13h17.5c11.74,0,18.72,7.2,18.72,16.05a15.17,15.17,0,0,1-9.36,14.12l9.36,18.14h-9.29l-8.42-16.2-2.24.07h-7.05v16.13h-9.22Zm17.5,23.47c5.76,0,9.43-3.1,9.43-7.42s-3.67-7.41-9.43-7.41h-8.28V113.6Z"/><path class="cls-4" d="M288.14,172.57a4.49,4.49,0,0,1-.52,2.12,4.91,4.91,0,0,1-1.47,1.65,7.24,7.24,0,0,1-2.29,1.07,10.94,10.94,0,0,1-3,.38h-5.28V159.14h5.78a9.07,9.07,0,0,1,2.47.32,6.06,6.06,0,0,1,1.93.92,4.23,4.23,0,0,1,1.23,1.44,4,4,0,0,1,.44,1.85,3.73,3.73,0,0,1-1.08,2.72,6.93,6.93,0,0,1-2.77,1.67,6.58,6.58,0,0,1,3.3,1.52A3.92,3.92,0,0,1,288.14,172.57Zm-7.67-5.42a7.15,7.15,0,0,0,1.77-.22,4.57,4.57,0,0,0,1.43-.64,3.08,3.08,0,0,0,.94-1A2.66,2.66,0,0,0,285,164a2.32,2.32,0,0,0-1.05-2.08,4.89,4.89,0,0,0-2.73-.7h-3.08v6Zm5.2,5.33a2.7,2.7,0,0,0-.39-1.46,3.11,3.11,0,0,0-1.07-1,5.14,5.14,0,0,0-1.57-.6,9,9,0,0,0-1.91-.2h-2.64v6.55h3a6,6,0,0,0,3.36-.82A2.72,2.72,0,0,0,285.67,172.48Z"/><path class="cls-4" d="M311.32,159.14h2.58v12a7.68,7.68,0,0,1-.48,2.73,6.13,6.13,0,0,1-1.4,2.21,6.24,6.24,0,0,1-2.28,1.47,9.63,9.63,0,0,1-6.3,0,6.24,6.24,0,0,1-2.28-1.47,6,6,0,0,1-1.4-2.21,7.68,7.68,0,0,1-.48-2.73v-12h2.58v12.15a4.88,4.88,0,0,0,1.19,3.42,5.44,5.44,0,0,0,7.08,0,4.93,4.93,0,0,0,1.19-3.42Z"/><path class="cls-4" d="M336.86,172.94a4.37,4.37,0,0,1-.52,2.16,5.05,5.05,0,0,1-1.4,1.62,6.5,6.5,0,0,1-2.07,1,8.85,8.85,0,0,1-2.56.36,13.9,13.9,0,0,1-2.76-.28A10.35,10.35,0,0,1,325,177l.5-2a12.2,12.2,0,0,0,2.28.78,10.21,10.21,0,0,0,2.51.31,5.06,5.06,0,0,0,2.94-.77,2.51,2.51,0,0,0,1.12-2.22,2.86,2.86,0,0,0-.32-1.39,3.9,3.9,0,0,0-.88-1,7,7,0,0,0-1.31-.82l-1.58-.76c-.63-.3-1.24-.61-1.83-.94a7.57,7.57,0,0,1-1.56-1.12,5.26,5.26,0,0,1-1.07-1.42,4,4,0,0,1-.41-1.87,4.9,4.9,0,0,1,.43-2.12A4.2,4.2,0,0,1,327,160a5.43,5.43,0,0,1,1.88-.93,9.08,9.08,0,0,1,2.41-.31,11.36,11.36,0,0,1,2.61.31,10.18,10.18,0,0,1,2.23.81l-.48,2.05a9.74,9.74,0,0,0-2-.79,9.17,9.17,0,0,0-2.32-.3c-2.26,0-3.39.87-3.39,2.63a2.66,2.66,0,0,0,.17,1,2.3,2.3,0,0,0,.54.81,4.47,4.47,0,0,0,1,.73c.42.23.93.5,1.53.8l1.9,1a9.8,9.8,0,0,1,1.85,1.24,6.57,6.57,0,0,1,1.4,1.66A4.32,4.32,0,0,1,336.86,172.94Z"/><path class="cls-4" d="M350.69,177.79h-2.58V159.14h2.58Z"/><path class="cls-4" d="M376.06,177.79l-10.45-14.65v14.65h-2.46V159.14h2.46l10.45,14.64V159.14h2.46v18.65Z"/><path class="cls-4" d="M390.84,159.14h10.39v2.1h-7.81v6h7.47v2.1h-7.47v6.39h7.89v2.1H390.84Z"/><path class="cls-4" d="M423.71,172.94a4.37,4.37,0,0,1-.52,2.16,5,5,0,0,1-1.39,1.62,6.45,6.45,0,0,1-2.08,1,8.75,8.75,0,0,1-2.56.36,14,14,0,0,1-2.76-.28,10.49,10.49,0,0,1-2.59-.84l.51-2a12.2,12.2,0,0,0,2.28.78,10.21,10.21,0,0,0,2.51.31,5.06,5.06,0,0,0,2.94-.77,2.54,2.54,0,0,0,1.12-2.22,2.75,2.75,0,0,0-.33-1.39,3.73,3.73,0,0,0-.88-1,6.88,6.88,0,0,0-1.3-.82l-1.58-.76c-.64-.3-1.25-.61-1.84-.94a7.5,7.5,0,0,1-1.55-1.12,5.09,5.09,0,0,1-1.08-1.42,4.12,4.12,0,0,1-.4-1.87,4.9,4.9,0,0,1,.43-2.12,4.1,4.1,0,0,1,1.22-1.54,5.47,5.47,0,0,1,1.87-.93,9.08,9.08,0,0,1,2.41-.31,11.38,11.38,0,0,1,2.62.31,9.9,9.9,0,0,1,2.22.81l-.47,2.05a10,10,0,0,0-2-.79,9.19,9.19,0,0,0-2.33-.3c-2.26,0-3.39.87-3.39,2.63a2.87,2.87,0,0,0,.17,1,2.33,2.33,0,0,0,.55.81,4.47,4.47,0,0,0,1,.73c.42.23.92.5,1.52.8l1.9,1a9.49,9.49,0,0,1,1.85,1.24,6.37,6.37,0,0,1,1.4,1.66A4.22,4.22,0,0,1,423.71,172.94Z"/><path class="cls-4" d="M445.44,172.94a4.37,4.37,0,0,1-.52,2.16,4.93,4.93,0,0,1-1.4,1.62,6.39,6.39,0,0,1-2.07,1,8.8,8.8,0,0,1-2.56.36,13.9,13.9,0,0,1-2.76-.28,10.49,10.49,0,0,1-2.59-.84l.51-2a12.2,12.2,0,0,0,2.28.78,10.13,10.13,0,0,0,2.5.31,5,5,0,0,0,2.94-.77,2.51,2.51,0,0,0,1.12-2.22,2.75,2.75,0,0,0-.32-1.39,3.73,3.73,0,0,0-.88-1,6.88,6.88,0,0,0-1.3-.82l-1.58-.76c-.64-.3-1.25-.61-1.84-.94a7.5,7.5,0,0,1-1.55-1.12,5.09,5.09,0,0,1-1.08-1.42,4.12,4.12,0,0,1-.41-1.87,4.9,4.9,0,0,1,.44-2.12,4.1,4.1,0,0,1,1.22-1.54,5.38,5.38,0,0,1,1.87-.93,9.08,9.08,0,0,1,2.41-.31,11.38,11.38,0,0,1,2.62.31,9.9,9.9,0,0,1,2.22.81l-.47,2.05a9.84,9.84,0,0,0-2.05-.79,9.12,9.12,0,0,0-2.32-.3c-2.26,0-3.39.87-3.39,2.63a2.87,2.87,0,0,0,.17,1,2.2,2.2,0,0,0,.55.81,4.39,4.39,0,0,0,1,.73c.42.23.93.5,1.53.8l1.9,1a9.49,9.49,0,0,1,1.85,1.24,6.37,6.37,0,0,1,1.4,1.66A4.22,4.22,0,0,1,445.44,172.94Z"/><path class="cls-4" d="M492.93,158.8a15.22,15.22,0,0,1,2.63.24,10.75,10.75,0,0,1,2.3.63l-.42,2a14.94,14.94,0,0,0-2.05-.55,11.35,11.35,0,0,0-2.15-.21,7.39,7.39,0,0,0-5.46,2,9,9,0,0,0,0,11.2,7.35,7.35,0,0,0,5.46,2,11.35,11.35,0,0,0,2.15-.21,15,15,0,0,0,2.05-.54l.42,2a10.75,10.75,0,0,1-2.3.63,16.23,16.23,0,0,1-2.63.23,11,11,0,0,1-4.1-.72,8.57,8.57,0,0,1-3-2,8.91,8.91,0,0,1-1.89-3,11.65,11.65,0,0,1,0-7.73,8.82,8.82,0,0,1,1.89-3,8.57,8.57,0,0,1,3-2A11,11,0,0,1,492.93,158.8Z"/><path class="cls-4" d="M516.84,178.12a9.29,9.29,0,0,1-3.89-.78,8.33,8.33,0,0,1-2.86-2.1,9.15,9.15,0,0,1-1.75-3.08,11.68,11.68,0,0,1,0-7.39,9.15,9.15,0,0,1,1.75-3.08,8.33,8.33,0,0,1,2.86-2.1,10,10,0,0,1,7.78,0,8.33,8.33,0,0,1,2.86,2.1,9.15,9.15,0,0,1,1.75,3.08,11.68,11.68,0,0,1,0,7.39,9.15,9.15,0,0,1-1.75,3.08,8.33,8.33,0,0,1-2.86,2.1A9.25,9.25,0,0,1,516.84,178.12Zm0-2.07a6.4,6.4,0,0,0,2.83-.59,5.61,5.61,0,0,0,2-1.62,7.37,7.37,0,0,0,1.23-2.42,10.61,10.61,0,0,0,0-5.91,7.22,7.22,0,0,0-1.23-2.41,5.82,5.82,0,0,0-2-1.62,7,7,0,0,0-5.66,0,5.82,5.82,0,0,0-2,1.62,7.22,7.22,0,0,0-1.23,2.41,10.61,10.61,0,0,0,0,5.91,7.37,7.37,0,0,0,1.23,2.42,5.61,5.61,0,0,0,2,1.62A6.4,6.4,0,0,0,516.84,176.05Z"/><path class="cls-4" d="M552.34,177.79h-2.63L548,173.28h-8.7l-1.68,4.51H535l7.42-18.65h2.52Zm-12.26-6.58h7.17l-3.59-9.72Z"/><path class="cls-4" d="M571,158.8a15.42,15.42,0,0,1,2.64.24,10.64,10.64,0,0,1,2.29.63l-.42,2a14.42,14.42,0,0,0-2-.55,11.45,11.45,0,0,0-2.16-.21,7.42,7.42,0,0,0-5.46,2,9,9,0,0,0,0,11.2,7.38,7.38,0,0,0,5.46,2,11.45,11.45,0,0,0,2.16-.21,14.43,14.43,0,0,0,2-.54l.42,2a10.64,10.64,0,0,1-2.29.63,16.44,16.44,0,0,1-2.64.23,11,11,0,0,1-4.1-.72,8.75,8.75,0,0,1-3-2,8.91,8.91,0,0,1-1.89-3,11.82,11.82,0,0,1,0-7.73,8.49,8.49,0,0,1,4.93-5.07A11,11,0,0,1,571,158.8Z"/><path class="cls-4" d="M599.36,177.79v-8.37h-9.55v8.37h-2.58V159.14h2.58v8.09h9.55v-8.09h2.57v18.65Z"/><path class="cls-4" d="M617,177.79h-2.58V159.14H617Z"/><path class="cls-4" d="M642.34,177.79l-10.45-14.65v14.65h-2.46V159.14h2.46l10.45,14.64V159.14h2.46v18.65Z"/><path class="cls-4" d="M666.08,158.8a16.25,16.25,0,0,1,3,.27,9.81,9.81,0,0,1,2.57.83l-.42,2a16.07,16.07,0,0,0-2.5-.76,13,13,0,0,0-2.62-.28,7.29,7.29,0,0,0-5.46,2,7.84,7.84,0,0,0-2,5.74,7.5,7.5,0,0,0,1.88,5.5q1.88,1.91,5.62,1.91A12.34,12.34,0,0,0,668,176a9.74,9.74,0,0,0,1.55-.32v-6.07h2.36v7.51a12.54,12.54,0,0,1-2.72.76,19.36,19.36,0,0,1-3.3.29,11.52,11.52,0,0,1-4.12-.68,8.73,8.73,0,0,1-3.08-1.93,8.27,8.27,0,0,1-1.92-3,10.65,10.65,0,0,1-.66-3.83,11.25,11.25,0,0,1,.69-4,8.83,8.83,0,0,1,2-3.12,9.06,9.06,0,0,1,3.14-2A11.48,11.48,0,0,1,666.08,158.8Z"/><path class="cls-4" d="M305.21,228.44a15.33,15.33,0,0,1-5,.88,7.58,7.58,0,0,1-8.3-8.16c0-4.82,3.33-8.35,8.76-8.35a9.92,9.92,0,0,1,4,.75l-.5,1.7a8.49,8.49,0,0,0-3.58-.7c-3.94,0-6.51,2.45-6.51,6.51s2.48,6.53,6.24,6.53a6.8,6.8,0,0,0,2.79-.44v-4.82h-3.29v-1.68h5.33Z"/><path class="cls-4" d="M313.13,221.16c0-1.36,0-2.54-.1-3.62h1.85l.07,2.28h.1a3.48,3.48,0,0,1,3.21-2.54,2.2,2.2,0,0,1,.6.07v2a3,3,0,0,0-.72-.07,3,3,0,0,0-2.83,2.71,5.74,5.74,0,0,0-.09,1v6.2h-2.09Z"/><path class="cls-4" d="M336.05,223.25c0,4.3-3,6.17-5.79,6.17-3.14,0-5.56-2.3-5.56-6,0-3.88,2.54-6.16,5.76-6.16S336.05,219.7,336.05,223.25Zm-9.22.12c0,2.55,1.47,4.47,3.53,4.47s3.53-1.9,3.53-4.52c0-2-1-4.46-3.48-4.46S326.83,221.16,326.83,223.37Z"/><path class="cls-4" d="M344.18,217.54l1.54,5.9c.34,1.3.65,2.5.86,3.7h.08c.26-1.18.65-2.42,1-3.67l1.9-5.93h1.77l1.8,5.81c.43,1.39.77,2.61,1,3.79h.08a35.18,35.18,0,0,1,.88-3.77l1.66-5.83h2.09l-3.75,11.62h-1.92l-1.77-5.55a36.14,36.14,0,0,1-1-3.81h-.05a34.61,34.61,0,0,1-1.06,3.84l-1.87,5.52h-1.92L342,217.54Z"/><path class="cls-4" d="M375.77,213h8.71v1.75h-6.62v5.38H384v1.73h-6.12v7.32h-2.09Z"/><path class="cls-4" d="M397.54,229.16l-.17-1.47h-.07a4.35,4.35,0,0,1-3.56,1.73,3.31,3.31,0,0,1-3.55-3.34c0-2.8,2.5-4.34,7-4.32v-.24a2.39,2.39,0,0,0-2.64-2.68,5.8,5.8,0,0,0-3,.86l-.48-1.39a7.15,7.15,0,0,1,3.82-1c3.55,0,4.41,2.42,4.41,4.75v4.34a15.83,15.83,0,0,0,.2,2.79Zm-.32-5.93c-2.3,0-4.92.36-4.92,2.61a1.88,1.88,0,0,0,2,2,2.88,2.88,0,0,0,2.8-1.94,2,2,0,0,0,.12-.68Z"/><path class="cls-4" d="M407.18,227a5.65,5.65,0,0,0,2.79.84c1.53,0,2.25-.77,2.25-1.73s-.6-1.56-2.16-2.14c-2.08-.74-3.07-1.89-3.07-3.29,0-1.87,1.51-3.4,4-3.4a5.74,5.74,0,0,1,2.86.72l-.53,1.53a4.53,4.53,0,0,0-2.38-.67c-1.25,0-1.94.72-1.94,1.58s.69,1.4,2.21,2c2,.77,3,1.78,3,3.51,0,2-1.58,3.48-4.34,3.48a6.6,6.6,0,0,1-3.26-.8Z"/><path class="cls-4" d="M424.32,214.2v3.34h3v1.61h-3v6.26c0,1.44.41,2.26,1.58,2.26a4.37,4.37,0,0,0,1.23-.15l.09,1.59a5.06,5.06,0,0,1-1.87.29,3,3,0,0,1-2.28-.89,4.33,4.33,0,0,1-.81-3v-6.33h-1.8v-1.61h1.8v-2.78Z"/><path class="cls-4" d="M463.29,222.89a2.52,2.52,0,1,1,2.53,2.5A2.5,2.5,0,0,1,463.29,222.89Z"/><path class="cls-4" d="M517.8,228.44a15.33,15.33,0,0,1-5,.88,7.58,7.58,0,0,1-8.3-8.16c0-4.82,3.33-8.35,8.76-8.35a9.92,9.92,0,0,1,4,.75l-.5,1.7a8.49,8.49,0,0,0-3.58-.7c-3.94,0-6.51,2.45-6.51,6.51s2.48,6.53,6.24,6.53a6.8,6.8,0,0,0,2.79-.44v-4.82h-3.29v-1.68h5.33Z"/><path class="cls-4" d="M525.72,221.16c0-1.36,0-2.54-.1-3.62h1.85l.07,2.28h.1a3.48,3.48,0,0,1,3.21-2.54,2.2,2.2,0,0,1,.6.07v2a3,3,0,0,0-.72-.07A3,3,0,0,0,527.9,222a5.74,5.74,0,0,0-.09,1v6.2h-2.09Z"/><path class="cls-4" d="M548.64,223.25c0,4.3-3,6.17-5.79,6.17-3.14,0-5.56-2.3-5.56-6,0-3.88,2.54-6.16,5.76-6.16S548.64,219.7,548.64,223.25Zm-9.22.12c0,2.55,1.47,4.47,3.53,4.47s3.53-1.9,3.53-4.52c0-2-1-4.46-3.48-4.46S539.42,221.16,539.42,223.37Z"/><path class="cls-4" d="M556.77,217.54l1.54,5.9c.34,1.3.65,2.5.86,3.7h.08c.26-1.18.65-2.42,1-3.67l1.9-5.93H564l1.8,5.81c.43,1.39.77,2.61,1,3.79h.08a35.18,35.18,0,0,1,.88-3.77l1.66-5.83h2.09l-3.75,11.62h-1.92l-1.77-5.55a36.14,36.14,0,0,1-1-3.81h0a34.61,34.61,0,0,1-1.06,3.84L560,229.16h-1.92l-3.51-11.62Z"/><path class="cls-4" d="M602,222.05c-.12-2.25-.26-5-.24-7h-.07c-.55,1.89-1.22,3.91-2,6.14l-2.86,7.85H595.2l-2.62-7.7c-.77-2.28-1.41-4.37-1.87-6.29h-.05c0,2-.17,4.73-.31,7.15l-.43,6.94h-2L589.05,213h2.67l2.76,7.82c.67,2,1.22,3.77,1.63,5.45h.07c.41-1.63,1-3.41,1.71-5.45l2.88-7.82h2.66l1,16.18h-2Z"/><path class="cls-4" d="M623,223.25c0,4.3-3,6.17-5.79,6.17-3.14,0-5.56-2.3-5.56-6,0-3.88,2.54-6.16,5.76-6.16S623,219.7,623,223.25Zm-9.22.12c0,2.55,1.47,4.47,3.53,4.47s3.53-1.9,3.53-4.52c0-2-1-4.46-3.48-4.46S613.82,221.16,613.82,223.37Z"/><path class="cls-4" d="M630.5,221.16c0-1.36,0-2.54-.09-3.62h1.84l.08,2.28h.09a3.48,3.48,0,0,1,3.22-2.54,2.2,2.2,0,0,1,.6.07v2a3.08,3.08,0,0,0-.72-.07,3,3,0,0,0-2.83,2.71,5.69,5.69,0,0,0-.1,1v6.2H630.5Z"/><path class="cls-4" d="M644.09,223.73a3.71,3.71,0,0,0,4,4,7.63,7.63,0,0,0,3.22-.6l.36,1.52a9.56,9.56,0,0,1-3.87.72c-3.57,0-5.71-2.36-5.71-5.86s2.06-6.26,5.45-6.26c3.79,0,4.8,3.33,4.8,5.47a8.79,8.79,0,0,1-.07,1Zm6.19-1.51c0-1.34-.55-3.43-2.93-3.43-2.14,0-3.07,2-3.24,3.43Z"/><polygon class="cls-4" points="266.35 197.62 318.05 197.13 369.76 196.85 473.18 196.62 576.59 196.85 628.3 197.13 680.01 197.62 628.3 198.11 576.59 198.39 473.18 198.62 369.76 198.39 318.05 198.11 266.35 197.62"/></svg>